HIERARCHY
ROOT Pelvis
{
	OFFSET 0.000000 0.000000 0.000000
	CHANNELS 6 Xposition Yposition Zposition Xrotation Yrotation Zrotation
	JOINT LeftUpLeg_virtual
	{
		OFFSET 0.000000 0.000000 0.000000
		CHANNELS 3 Xrotation Yrotation Zrotation
		JOINT LeftUpLeg
		{
			OFFSET 18.735201 -5.666702 -4.541200
			CHANNELS 3 Xrotation Yrotation Zrotation
			JOINT LeftLeg
			{
				OFFSET -0.021200 -31.938179 0.493100
				CHANNELS 3 Xrotation Yrotation Zrotation
				JOINT LeftFoot
				{
					OFFSET 0.021200 -31.938179 -4.336299
					CHANNELS 3 Xrotation Yrotation Zrotation
					JOINT LeftToeBase
					{
						OFFSET 0.943001 -26.722000 15.023500
						CHANNELS 3 Xrotation Yrotation Zrotation
						End Site
						{
							OFFSET 0 0 0
						}
					}
				}
			}
		}
	}
	JOINT RightUpLeg_virtual
	{
		OFFSET 0.000000 0.000000 0.000000
		CHANNELS 3 Xrotation Yrotation Zrotation
		JOINT RightUpLeg
		{
			OFFSET -18.735201 -5.666702 -4.541200
			CHANNELS 3 Xrotation Yrotation Zrotation
			JOINT RightLeg
			{
				OFFSET 0.018946 -31.938133 0.493100
				CHANNELS 3 Xrotation Yrotation Zrotation
				JOINT RightFoot
				{
					OFFSET -0.018946 -31.938126 -4.336299
					CHANNELS 3 Xrotation Yrotation Zrotation
					JOINT RightToeBase
					{
						OFFSET -0.943001 -26.722004 15.023500
						CHANNELS 3 Xrotation Yrotation Zrotation
						End Site
						{
							OFFSET 0 0 0
						}
					}
				}
			}
		}
	}
	JOINT Hips_virtual
	{
		OFFSET 0.000000 0.000000 0.000000
		CHANNELS 3 Xrotation Yrotation Zrotation
		JOINT Hips
		{
			OFFSET -0.000000 -0.000000 -0.000000
			CHANNELS 3 Xrotation Yrotation Zrotation
			JOINT Spine
			{
				OFFSET 0.000000 10.199997 -0.299500
				CHANNELS 3 Xrotation Yrotation Zrotation
				JOINT Spine1
				{
					OFFSET 0.000000 11.900002 -1.516600
					CHANNELS 3 Xrotation Yrotation Zrotation
					JOINT Spine2
					{
						OFFSET 0.000000 13.600006 -2.842500
						CHANNELS 3 Xrotation Yrotation Zrotation
						JOINT Neck_virtual
						{
							OFFSET 0.000000 0.000000 0.000000
							CHANNELS 3 Xrotation Yrotation Zrotation
							JOINT Neck
							{
								OFFSET 0.000000 9.624100 -2.890100
								CHANNELS 3 Xrotation Yrotation Zrotation
								JOINT Head
								{
									OFFSET 0.000000 14.068802 -1.351900
									CHANNELS 3 Xrotation Yrotation Zrotation
									End Site
									{
										OFFSET 0 0 0
									}
								}
							}
						}
						JOINT LeftShoulder_virtual
						{
							OFFSET 0.000000 0.000000 0.000000
							CHANNELS 3 Xrotation Yrotation Zrotation
							JOINT LeftShoulder
							{
								OFFSET 15.263000 10.923401 -0.547700
								CHANNELS 3 Xrotation Yrotation Zrotation
								JOINT LeftArm
								{
									OFFSET 25.438599 -2.830597 -13.032500
									CHANNELS 3 Xrotation Yrotation Zrotation
									JOINT LeftForeArm
									{
										OFFSET 29.960503 0.000000 0.000000
										CHANNELS 3 Xrotation Yrotation Zrotation
										JOINT LeftHand
										{
											OFFSET 27.849251 0.000000 0.000000
											CHANNELS 3 Xrotation Yrotation Zrotation
											End Site
											{
												OFFSET 0 0 0
											}
										}
									}
								}
							}
						}
						JOINT RightShoulder_virtual
						{
							OFFSET 0.000000 0.000000 0.000000
							CHANNELS 3 Xrotation Yrotation Zrotation
							JOINT RightShoulder
							{
								OFFSET -15.263000 10.923401 -0.547700
								CHANNELS 3 Xrotation Yrotation Zrotation
								JOINT RightArm
								{
									OFFSET -25.438599 -2.830597 -13.032500
									CHANNELS 3 Xrotation Yrotation Zrotation
									JOINT RightForeArm
									{
										OFFSET -29.960503 0.000000 0.000000
										CHANNELS 3 Xrotation Yrotation Zrotation
										JOINT RightHand
										{
											OFFSET -27.849251 0.000000 0.000000
											CHANNELS 3 Xrotation Yrotation Zrotation
											End Site
											{
												OFFSET 0 0 0
											}
										}
									}
								}
							}
						}
					}
				}
			}
		}
	}
}
MOTION
Frames: 12
Frame Time: 0.03333333
-11.915880 78.241631 7.032112 0.000000 0.000000 0.000000 4.197485 -40.620006 11.049994 -57.167372 26.729267 42.716054 43.045840 -29.424660 2.484302 2.748408 1.333215 -18.759108 0.000000 0.000000 0.000000 4.197485 -40.620006 11.049994 -14.639382 -6.599452 -36.737924 57.624305 4.110924 -6.639413 -44.089353 -12.232003 28.490128 0.000000 0.000000 0.000000 4.197485 -40.620006 11.049994 0.000000 -0.000003 0.000001 17.692300 -5.847145 2.895389 28.357205 -3.983565 -2.018758 0.000000 0.000000 0.000000 17.259821 -2.365353 -3.582338 0.688213 -0.001170 3.695599 0.000000 0.000000 0.000000 17.259821 -2.365353 -3.582338 2.328564 -30.676869 2.585249 -33.628819 -25.347563 -29.746515 -7.805141 -23.996589 1.221979 0.000000 0.000000 0.000000 17.259821 -2.365353 -3.582338 -0.608449 13.107897 25.085202 -20.872684 -20.553212 19.260995 -11.667155 82.321360 10.693629 0.000000 0.000000 0.000000 
-11.126951 78.672165 7.179317 0.000000 0.000000 0.000000 1.905217 -39.045582 8.667355 -57.817312 26.494364 42.820020 43.714969 -29.643065 2.547912 3.566381 -0.467565 -17.175115 0.000000 0.000000 0.000000 1.905217 -39.045582 8.667355 -11.402582 -8.557521 -35.809166 54.940307 3.439005 -6.517362 -42.666693 -12.679638 29.055130 0.000000 0.000000 0.000000 1.905217 -39.045582 8.667355 0.000000 -0.000001 0.000000 17.256118 -5.455483 2.968000 27.212090 -3.554406 -1.949091 0.000000 0.000000 0.000000 16.129910 -2.065770 -3.134687 0.291798 0.305442 3.548366 0.000000 0.000000 0.000000 16.129910 -2.065770 -3.134687 2.180196 -30.084685 2.687265 -32.508938 -24.092751 -31.048158 -8.013980 -21.085994 0.699045 0.000000 0.000000 0.000000 16.129910 -2.065770 -3.134687 -0.531466 12.423656 23.593297 -19.558382 -22.044753 20.084139 3.473112 83.560261 -3.939765 0.000000 0.000000 0.000000 
-10.261063 79.001045 7.332066 0.000000 0.000000 0.000000 0.421163 -37.310366 6.896678 -58.999304 26.250937 42.732238 44.482427 -29.773717 2.621645 4.447372 -2.212332 -15.492279 0.000000 0.000000 0.000000 0.421163 -37.310366 6.896678 -8.617458 -10.187549 -34.741979 52.327923 2.659580 -6.395291 -41.172015 -13.291431 29.671967 0.000000 0.000000 0.000000 0.421163 -37.310366 6.896678 0.000000 0.000003 0.000000 16.668278 -4.955765 2.968357 25.694740 -3.058035 -1.812178 0.000000 0.000000 0.000000 14.600545 -1.729654 -2.630742 -0.153991 0.521693 3.137477 0.000000 0.000000 0.000000 14.600545 -1.729654 -2.630742 2.003540 -29.369745 2.652568 -32.151357 -23.761163 -32.868021 -7.911237 -17.129758 0.318790 0.000000 0.000000 0.000000 14.600545 -1.729654 -2.630742 -0.689640 12.059403 21.568687 -17.317849 -24.231764 21.746177 11.487880 83.685336 -11.686986 0.000000 0.000000 0.000000 
-9.438627 79.263397 7.461586 0.000000 0.000000 0.000000 -0.144076 -36.443321 5.631990 -60.409950 25.860747 43.055846 45.530099 -29.678036 2.721068 4.824695 -3.379104 -14.092304 0.000000 0.000000 0.000000 -0.144076 -36.443321 5.631990 -7.132316 -10.937488 -33.719114 50.164365 2.107685 -6.278696 -39.561402 -13.477805 30.219868 0.000000 0.000000 0.000000 -0.144076 -36.443321 5.631990 0.000000 0.000000 0.000000 16.041947 -4.334003 2.860153 23.874134 -2.378899 -1.661031 0.000000 0.000000 0.000000 12.746244 -1.195063 -2.114457 -0.636986 0.674572 2.748684 0.000000 0.000000 0.000000 12.746244 -1.195063 -2.114457 1.808337 -28.559731 2.531817 -31.661578 -22.934337 -34.762716 -7.765075 -14.016617 -0.175859 0.000000 0.000000 0.000000 12.746244 -1.195063 -2.114457 -0.998212 12.045921 18.894803 -14.805803 -26.204412 23.853534 8.172813 83.221907 -7.948653 0.000000 0.000000 0.000000 
-8.739847 79.508293 7.557301 0.000000 0.000000 0.000000 -0.243224 -36.723530 4.672406 -61.487781 25.394078 43.849138 46.709427 -29.320581 2.832994 4.553521 -3.876427 -13.173917 0.000000 0.000000 0.000000 -0.243224 -36.723530 4.672406 -6.920107 -10.873713 -33.077677 48.613042 1.970948 -6.169450 -37.968677 -13.038426 30.640871 0.000000 0.000000 0.000000 -0.243224 -36.723530 4.672406 0.000000 0.000000 0.000000 15.459892 -3.720832 2.483714 21.959179 -1.638662 -1.746981 0.000000 0.000000 0.000000 10.776221 -0.487440 -1.926382 -1.223851 0.793476 2.724592 0.000000 0.000000 0.000000 10.776221 -0.487440 -1.926382 1.535526 -27.653775 2.236995 -29.438071 -19.826969 -35.379550 -7.849065 -15.756393 -1.303347 0.000000 0.000000 0.000000 10.776221 -0.487440 -1.926382 -1.558133 12.888399 17.036906 -13.097052 -27.809539 25.131666 -2.297382 81.906768 3.149502 0.000000 0.000000 0.000000 
-8.090647 79.650284 7.577229 0.000000 0.000000 0.000000 -0.191694 -37.663453 3.695510 -62.584996 24.567951 45.075789 48.326836 -28.828483 2.973501 3.860996 -4.006843 -12.514279 0.000000 0.000000 0.000000 -0.191694 -37.663453 3.695510 -7.493209 -10.336330 -32.530456 47.692933 2.084732 -6.088788 -36.527623 -12.261469 30.956535 0.000000 0.000000 0.000000 -0.191694 -37.663453 3.695510 0.000000 0.000000 0.000000 14.885953 -3.014325 1.972247 20.033220 -0.721256 -1.910818 0.000000 0.000000 0.000000 8.779093 0.422443 -1.822624 -1.648856 0.814615 2.859261 0.000000 0.000000 0.000000 8.779093 0.422443 -1.822624 1.256029 -26.695943 1.951572 -26.924478 -16.392437 -35.487211 -8.215791 -18.819835 -2.744736 0.000000 0.000000 0.000000 8.779093 0.422443 -1.822624 -2.213876 13.915518 15.469822 -11.179687 -29.460471 26.677554 -9.614330 79.698226 10.753756 0.000000 0.000000 0.000000 
-7.463221 79.694946 7.511627 0.000000 0.000000 0.000000 -0.088862 -39.085645 2.822479 -63.466965 23.578795 46.400043 50.110117 -28.200039 3.119487 2.912497 -3.806501 -12.113525 0.000000 0.000000 0.000000 -0.088862 -39.085645 2.822479 -8.767243 -9.430774 -32.228364 47.452367 2.436869 -6.044246 -35.292428 -11.256467 31.195011 0.000000 0.000000 0.000000 -0.088862 -39.085645 2.822479 0.000000 -0.000001 0.000000 14.371934 -2.340763 1.426228 18.208410 0.108048 -2.088041 0.000000 0.000000 0.000000 6.863175 1.217126 -1.806961 -1.930302 0.888000 2.851124 0.000000 0.000000 0.000000 6.863175 1.217126 -1.806961 1.111803 -25.727326 2.026149 -24.103572 -12.168178 -35.047760 -9.064592 -22.793005 -4.665274 0.000000 0.000000 0.000000 6.863175 1.217126 -1.806961 -2.959073 15.629997 13.971195 -9.074712 -31.029464 28.696258 -12.163565 76.939199 13.588357 0.000000 0.000000 0.000000 
-6.908853 79.659485 7.376575 0.000000 0.000000 0.000000 0.457837 -40.996872 2.418411 -64.128107 22.566769 47.631820 51.768135 -27.399649 3.251862 1.749441 -3.179986 -12.106686 0.000000 0.000000 0.000000 0.457837 -40.996872 2.418411 -10.977715 -8.074721 -32.132516 47.830613 2.968022 -6.036833 -34.230651 -10.081553 31.343253 0.000000 0.000000 0.000000 0.457837 -40.996872 2.418411 0.000000 -0.000002 0.000000 13.807945 -1.581749 0.892461 16.224735 1.040152 -2.264834 0.000000 0.000000 0.000000 4.779772 2.084088 -1.776947 -1.597851 1.059592 2.513967 0.000000 0.000000 0.000000 4.779772 2.084088 -1.776947 0.926521 -24.655122 2.217972 -21.850395 -9.454559 -35.072256 -10.668218 -23.480450 -6.601970 0.000000 0.000000 0.000000 4.779772 2.084088 -1.776947 -3.601170 17.036893 12.218582 -6.821365 -32.191433 31.550939 -13.468237 73.377972 15.510637 0.000000 0.000000 0.000000 
-6.386967 79.500275 7.092434 0.000000 0.000000 0.000000 1.508043 -43.258064 2.710438 -64.615823 21.707373 48.586329 53.161336 -26.446190 3.362840 0.584384 -2.170497 -12.460680 0.000000 0.000000 0.000000 1.508043 -43.258064 2.710438 -14.220067 -6.175363 -32.278839 49.109272 3.636255 -6.091186 -33.449632 -8.864299 31.396375 0.000000 0.000000 0.000000 1.508043 -43.258064 2.710438 0.000000 0.000000 0.000000 13.190811 -0.790865 0.307252 14.039112 2.006147 -2.674290 0.000000 0.000000 0.000000 2.487246 3.012143 -1.983580 -0.920504 1.271360 2.002373 0.000000 0.000000 0.000000 2.487246 3.012143 -1.983580 0.644960 -23.351181 2.453094 -19.766892 -7.535205 -35.683637 -12.951030 -23.003232 -8.490989 0.000000 0.000000 0.000000 2.487246 3.012142 -1.983580 -4.162937 18.554955 10.399112 -4.262141 -33.214961 35.391817 -11.690320 69.244717 14.365500 0.000000 0.000000 0.000000 
-5.897725 79.325043 6.689930 0.000000 0.000000 0.000000 2.689216 -45.668789 3.335595 -64.799712 21.047703 49.382220 54.182572 -25.450183 3.448264 -0.442585 -0.985466 -13.059270 0.000000 0.000000 0.000000 2.689216 -45.668789 3.335595 -17.800709 -4.114082 -32.401594 50.649435 4.361480 -6.159988 -32.698431 -7.561140 31.343899 0.000000 0.000000 0.000000 2.689216 -45.668789 3.335595 0.000000 0.000000 0.000000 12.686030 0.027858 -0.276066 12.126457 3.019867 -3.134194 0.000000 0.000000 0.000000 0.471928 3.989726 -2.254837 -0.189286 1.487877 1.457396 0.000000 0.000000 0.000000 0.471928 3.989726 -2.254837 0.107150 -21.924718 1.939393 -17.885639 -6.042548 -36.243132 -15.432054 -22.617383 -9.783535 0.000000 0.000000 0.000000 0.471928 3.989726 -2.254837 -4.536996 19.754821 8.386383 -2.122751 -33.601382 39.751609 -9.538954 64.459398 12.794764 0.000000 0.000000 0.000000 
-5.442230 79.138504 6.173138 0.000000 0.000000 0.000000 4.148615 -47.928366 4.323932 -64.980425 20.510228 49.979042 54.800954 -24.483202 3.508881 -1.141341 0.205339 -13.791797 0.000000 0.000000 0.000000 4.148615 -47.928366 4.323932 -21.495346 -2.075647 -32.289651 52.237919 4.999409 -6.236256 -31.954726 -6.352700 31.182208 0.000000 0.000000 0.000000 4.148615 -47.928366 4.323932 0.000000 -0.000001 0.000000 12.241600 0.829158 -0.792947 10.413737 3.993262 -3.547905 0.000000 0.000000 0.000000 -1.329871 4.911367 -2.505655 0.602671 1.632052 0.840867 0.000000 0.000000 0.000000 -1.329871 4.911367 -2.505655 -0.422973 -21.225308 0.922668 -15.788932 -3.942694 -36.814306 -18.228670 -23.165183 -10.872638 0.000000 0.000000 0.000000 -1.329871 4.911367 -2.505655 -4.766918 20.819028 6.421442 -0.442834 -33.773277 44.062848 -9.294063 59.280339 12.771789 0.000000 0.000000 0.000000 
-4.976787 78.939926 5.573700 0.000000 0.000000 0.000000 5.965094 -49.508124 5.876461 -65.441313 20.284545 50.036935 54.840702 -23.625688 3.536850 -1.216032 1.134535 -14.409853 0.000000 0.000000 0.000000 5.965094 -49.508124 5.876461 -24.990463 -0.182724 -32.118702 53.845568 5.392944 -6.325764 -31.356432 -5.606767 30.999316 0.000000 0.000000 0.000000 5.965094 -49.508124 5.876461 0.000000 0.000001 0.000000 11.818842 1.477857 -1.244978 8.837729 4.692371 -3.929416 0.000000 0.000000 0.000000 -2.970673 5.569834 -2.797859 1.209872 1.731083 0.297253 0.000000 0.000000 0.000000 -2.970673 5.569834 -2.797859 -0.920961 -20.245982 -0.209624 -13.980162 -1.886900 -37.746378 -20.484484 -23.799111 -12.103370 0.000000 0.000000 0.000000 -2.970673 5.569834 -2.797859 -4.891215 21.892930 4.627253 1.079843 -33.859631 48.264429 -9.560979 54.188409 12.871637 0.000000 0.000000 0.000000 
